<svg width="84" height="18" viewBox="0 0 84 18" fill="none" xmlns="http://www.w3.org/2000/svg">
<path d="M12.0192 9.91381H2.61875V6.32764C2.61875 5.55226 2.74409 4.91072 2.99477 4.40303C3.24544 3.89534 3.59013 3.51688 4.02882 3.26764C4.46751 3.01841 4.95992 2.8938 5.50604 2.8938C6.0253 2.8938 6.50428 3.0138 6.94297 3.2538C7.3727 3.4938 7.72186 3.86765 7.99045 4.37534C8.25011 4.88303 8.3799 5.5338 8.3799 6.32764V8.1415H12.0192V9.91381ZM6.98326 8.1415V6.43841C6.98326 5.81995 6.85346 5.37688 6.59381 5.10918C6.32522 4.83226 5.96263 4.6938 5.50604 4.6938C5.04049 4.6938 4.6779 4.83226 4.41827 5.10918C4.14968 5.37688 4.01539 5.81995 4.01539 6.43841V8.1415H6.98326Z" fill="#2D70FD"/>
<path d="M6.78185 8.14145H16.1823V11.7276C16.1823 12.503 16.057 13.1445 15.8063 13.6522C15.5557 14.1599 15.2109 14.5384 14.7723 14.7876C14.3336 15.0368 13.8411 15.1614 13.295 15.1614C12.7758 15.1614 12.2968 15.0415 11.8581 14.8014C11.4284 14.5614 11.0792 14.1876 10.8106 13.6799C10.551 13.1722 10.4212 12.5215 10.4212 11.7276V9.91376H6.78185V8.14145ZM11.8178 9.91376V11.6168C11.8178 12.2353 11.9476 12.6783 12.2073 12.9461C12.4759 13.223 12.8385 13.3614 13.295 13.3614C13.7606 13.3614 14.1232 13.223 14.3828 12.9461C14.6514 12.6783 14.7857 12.2353 14.7857 11.6168V9.91376H11.8178Z" fill="#2D70FD"/>
<path d="M5.50619 15.1616C6.32204 15.1616 6.98341 14.4797 6.98341 13.6385C6.98341 12.7974 6.32204 12.1154 5.50619 12.1154C4.69035 12.1154 4.02897 12.7974 4.02897 13.6385C4.02897 14.4797 4.69035 15.1616 5.50619 15.1616Z" fill="#FFD166"/>
<path d="M13.2948 5.95369C14.1107 5.95369 14.772 5.27178 14.772 4.43061C14.772 3.58944 14.1107 2.90753 13.2948 2.90753C12.479 2.90753 11.8176 3.58944 11.8176 4.43061C11.8176 5.27178 12.479 5.95369 13.2948 5.95369Z" fill="#00D8A7"/>
<path d="M22.3329 13.7076V4.0153H25.8111C26.5631 4.0153 27.1853 4.14453 27.6777 4.40299C28.1701 4.66145 28.5372 5.01684 28.7789 5.46914C29.0206 5.92145 29.1415 6.42914 29.1415 6.99222C29.1415 7.52758 29.0251 8.02147 28.7923 8.47376C28.5596 8.91684 28.197 9.27684 27.7046 9.55376C27.2122 9.82147 26.581 9.9553 25.8111 9.9553H24.0518V13.7076H22.3329ZM24.0518 8.5153H25.7036C26.3034 8.5153 26.7332 8.38147 26.9928 8.11376C27.2614 7.83683 27.3957 7.46299 27.3957 6.99222C27.3957 6.51222 27.2614 6.13838 26.9928 5.87068C26.7332 5.59376 26.3034 5.4553 25.7036 5.4553H24.0518V8.5153ZM30.1141 13.7076V6.83991H31.645L31.8061 8.1276C32.0479 7.68453 32.3747 7.33373 32.7865 7.0753C33.2073 6.8076 33.6997 6.67376 34.2637 6.67376V8.54299H33.7802C33.4042 8.54299 33.0685 8.60301 32.773 8.72299C32.4776 8.84297 32.2449 9.05066 32.0747 9.34607C31.9136 9.64147 31.833 10.0522 31.833 10.5784V13.7076H30.1141ZM38.1809 13.8738C37.5363 13.8738 36.9544 13.7215 36.4351 13.4168C35.9248 13.1122 35.5175 12.6922 35.2131 12.1568C34.9176 11.6122 34.7699 10.9846 34.7699 10.2738C34.7699 9.56297 34.9221 8.93989 35.2265 8.40453C35.5309 7.85989 35.9383 7.4353 36.4486 7.13068C36.9679 6.82607 37.5498 6.67376 38.1944 6.67376C38.83 6.67376 39.403 6.82607 39.9133 7.13068C40.4326 7.4353 40.8399 7.85989 41.1354 8.40453C41.4398 8.93989 41.592 9.56297 41.592 10.2738C41.592 10.9846 41.4398 11.6122 41.1354 12.1568C40.8399 12.6922 40.4326 13.1122 39.9133 13.4168C39.3941 13.7215 38.8166 13.8738 38.1809 13.8738ZM38.1809 12.3368C38.6286 12.3368 39.0181 12.166 39.3493 11.8245C39.6806 11.4737 39.8462 10.9569 39.8462 10.2738C39.8462 9.59066 39.6806 9.07835 39.3493 8.73684C39.0181 8.38604 38.6331 8.21068 38.1944 8.21068C37.7378 8.21068 37.3439 8.38604 37.0126 8.73684C36.6903 9.07835 36.5291 9.59066 36.5291 10.2738C36.5291 10.9569 36.6903 11.4737 37.0126 11.8245C37.3439 12.166 37.7333 12.3368 38.1809 12.3368ZM45.8551 13.8738C45.2283 13.8738 44.6688 13.7168 44.1764 13.403C43.684 13.0892 43.2945 12.6599 43.0081 12.1153C42.7216 11.5707 42.5783 10.9522 42.5783 10.2599C42.5783 9.5676 42.7216 8.95373 43.0081 8.41837C43.2945 7.87373 43.684 7.44914 44.1764 7.14453C44.6688 6.83068 45.2283 6.67376 45.8551 6.67376C46.3564 6.67376 46.7951 6.77068 47.1712 6.96453C47.5472 7.15837 47.8515 7.43066 48.0843 7.78145V3.73837H49.8033V13.7076H48.2724L48.0843 12.7245C47.8695 13.0291 47.583 13.2969 47.2249 13.5276C46.8757 13.7584 46.4191 13.8738 45.8551 13.8738ZM46.2177 12.323C46.7727 12.323 47.2249 12.1338 47.574 11.7553C47.9321 11.3676 48.1112 10.8738 48.1112 10.2738C48.1112 9.67373 47.9321 9.18455 47.574 8.80607C47.2249 8.41837 46.7727 8.22453 46.2177 8.22453C45.6715 8.22453 45.2194 8.41373 44.8613 8.79222C44.5032 9.1707 44.3241 9.65989 44.3241 10.2599C44.3241 10.8599 44.5032 11.3538 44.8613 11.7415C45.2194 12.1291 45.6715 12.323 46.2177 12.323ZM53.7158 13.8738C52.8831 13.8738 52.2385 13.606 51.7819 13.0707C51.3344 12.5353 51.1105 11.7507 51.1105 10.7168V6.83991H52.816V10.5507C52.816 11.1414 52.9324 11.5938 53.1652 11.9076C53.398 12.2214 53.765 12.3784 54.2664 12.3784C54.7409 12.3784 55.1303 12.203 55.4347 11.8522C55.7481 11.5014 55.9047 11.0122 55.9047 10.3845V6.83991H57.6237V13.7076H56.1062L55.9719 12.5445C55.766 12.9507 55.4661 13.2737 55.0721 13.5138C54.6872 13.7538 54.2351 13.8738 53.7158 13.8738ZM62.3158 13.8738C61.6355 13.8738 61.0356 13.7215 60.5163 13.4168C59.9971 13.1122 59.5852 12.6876 59.2808 12.143C58.9854 11.5984 58.8377 10.9753 58.8377 10.2738C58.8377 9.57224 58.9854 8.94917 59.2808 8.40453C59.5852 7.85989 59.9971 7.4353 60.5163 7.13068C61.0356 6.82607 61.6355 6.67376 62.3158 6.67376C63.1664 6.67376 63.8826 6.90453 64.4645 7.36607C65.0465 7.81835 65.418 8.44607 65.5792 9.24914H63.7662C63.6767 8.91684 63.4976 8.6584 63.229 8.47376C62.9694 8.27991 62.6605 8.18299 62.3024 8.18299C61.8279 8.18299 61.425 8.36763 61.0938 8.73684C60.7626 9.10604 60.5969 9.61835 60.5969 10.2738C60.5969 10.9292 60.7626 11.4415 61.0938 11.8107C61.425 12.1799 61.8279 12.3645 62.3024 12.3645C62.6605 12.3645 62.9694 12.2722 63.229 12.0876C63.4976 11.903 63.6767 11.6399 63.7662 11.2984H65.5792C65.418 12.0738 65.0465 12.6968 64.4645 13.1676C63.8826 13.6384 63.1664 13.8738 62.3158 13.8738ZM69.6455 13.7076C68.9471 13.7076 68.3871 13.5322 67.9668 13.1815C67.5458 12.8307 67.3356 12.2076 67.3356 11.3122V8.32145H66.1939V6.83991H67.3356L67.5371 4.99837H69.0546V6.83991H70.8541V8.32145H69.0546V11.3261C69.0546 11.6584 69.1217 11.8891 69.256 12.0184C69.399 12.1384 69.6408 12.1984 69.9812 12.1984H70.8138V13.7076H69.6455ZM75.0601 13.8738C74.3887 13.8738 73.7931 13.7261 73.2741 13.4307C72.7543 13.1353 72.3474 12.7199 72.052 12.1845C71.7566 11.6492 71.6088 11.0307 71.6088 10.3291C71.6088 9.61835 71.7518 8.98607 72.0386 8.43222C72.334 7.87837 72.7369 7.44914 73.2472 7.14453C73.7662 6.83068 74.3753 6.67376 75.0736 6.67376C75.7269 6.67376 76.3044 6.82145 76.8059 7.11684C77.3069 7.41224 77.6963 7.81835 77.9743 8.3353C78.2603 8.84297 78.404 9.41066 78.404 10.0384C78.404 10.1399 78.3993 10.2461 78.3906 10.3568C78.3906 10.4676 78.3859 10.583 78.3772 10.703H73.3143C73.3499 11.2384 73.5292 11.6584 73.8515 11.963C74.1825 12.2676 74.5807 12.4199 75.0467 12.4199C75.3959 12.4199 75.6866 12.3415 75.9196 12.1845C76.1613 12.0184 76.34 11.806 76.4568 11.5476H78.2026C78.077 11.9815 77.8669 12.3784 77.5714 12.7384C77.2847 13.0892 76.9268 13.3661 76.4971 13.5691C76.0761 13.7722 75.5973 13.8738 75.0601 13.8738ZM75.0736 8.11376C74.6526 8.11376 74.2812 8.23837 73.9589 8.4876C73.6366 8.72763 73.4305 9.09684 73.3412 9.5953H76.6582C76.6314 9.14301 76.4702 8.78301 76.1748 8.5153C75.8793 8.24758 75.512 8.11376 75.0736 8.11376ZM79.514 13.7076V6.83991H81.0449L81.206 8.1276C81.4478 7.68453 81.7741 7.33373 82.1864 7.0753C82.6067 6.8076 83.0996 6.67376 83.6636 6.67376V8.54299H83.1801C82.8041 8.54299 82.4684 8.60301 82.1729 8.72299C81.8775 8.84297 81.6445 9.05066 81.4746 9.34607C81.3135 9.64147 81.2329 10.0522 81.2329 10.5784V13.7076H79.514Z" fill="#2D70FD"/>
</svg>
